<svg xmlns="http://www.w3.org/2000/svg" viewBox="0 0 400 400" width="400" height="400">
  <!-- ALBUS · estado IDLE — sonrisa amable, ojos relajados, luz parpadeante -->
  <defs>
    <linearGradient id="busBody" x1="0%" y1="0%" x2="0%" y2="100%">
      <stop offset="0%" stop-color="#7A3268"/>
      <stop offset="55%" stop-color="#4A1D3D"/>
      <stop offset="100%" stop-color="#3A1530"/>
    </linearGradient>
    <radialGradient id="windshield" cx="50%" cy="35%" r="65%">
      <stop offset="0%" stop-color="#D6F0FF"/>
      <stop offset="60%" stop-color="#A0D2EE"/>
      <stop offset="100%" stop-color="#7BB8D9"/>
    </radialGradient>
    <filter id="shadow" x="-20%" y="-20%" width="140%" height="140%">
      <feGaussianBlur in="SourceAlpha" stdDeviation="5"/>
      <feOffset dx="0" dy="5"/>
      <feComponentTransfer><feFuncA type="linear" slope="0.28"/></feComponentTransfer>
      <feMerge><feMergeNode/><feMergeNode in="SourceGraphic"/></feMerge>
    </filter>
  </defs>

  <!-- Sombra suelo -->
  <ellipse cx="200" cy="372" rx="135" ry="14" fill="#000" opacity="0.18"/>

  <!-- Cuerpo + cara -->
  <g filter="url(#shadow)">
    <rect x="65" y="95" width="270" height="245" rx="58" ry="58" fill="url(#busBody)"/>
    <!-- Brillo del techo -->
    <path d="M 90 100 Q 200 80 310 100 L 310 130 Q 200 110 90 130 Z" fill="#9B4D7D" opacity="0.4"/>
    <!-- Parabrisas -->
    <path d="M 100 142 Q 100 122 122 122 L 278 122 Q 300 122 300 142 L 300 222 Q 300 238 282 238 L 118 238 Q 100 238 100 222 Z"
          fill="url(#windshield)" stroke="#2A0F26" stroke-width="3"/>
    <!-- Reflejo parabrisas -->
    <path d="M 122 142 Q 138 134 155 138 L 178 198 Q 168 208 158 203 Z" fill="#FFF" opacity="0.45"/>

    <!-- Ojo izquierdo -->
    <ellipse cx="167" cy="178" rx="28" ry="30" fill="#FFF" stroke="#2A0F26" stroke-width="2"/>
    <circle cx="169" cy="183" r="14" fill="#2A0F26"/>
    <circle cx="174" cy="178" r="5" fill="#FFF"/>
    <!-- Ojo derecho -->
    <ellipse cx="233" cy="178" rx="28" ry="30" fill="#FFF" stroke="#2A0F26" stroke-width="2"/>
    <circle cx="235" cy="183" r="14" fill="#2A0F26"/>
    <circle cx="240" cy="178" r="5" fill="#FFF"/>

    <!-- Mejillas (blush) -->
    <ellipse cx="130" cy="225" rx="16" ry="9" fill="#FF6B9D" opacity="0.55"/>
    <ellipse cx="270" cy="225" rx="16" ry="9" fill="#FF6B9D" opacity="0.55"/>

    <!-- Sonrisa relajada -->
    <path d="M 175 245 Q 200 265 225 245" stroke="#2A0F26" stroke-width="5" stroke-linecap="round" fill="none"/>
    <path d="M 188 250 Q 200 260 212 250 Q 200 256 188 250 Z" fill="#FF6B9D"/>

    <!-- Ventanas laterales -->
    <rect x="72" y="250" width="22" height="42" rx="6" fill="url(#windshield)" stroke="#2A0F26" stroke-width="2"/>
    <rect x="306" y="250" width="22" height="42" rx="6" fill="url(#windshield)" stroke="#2A0F26" stroke-width="2"/>

    <!-- Línea decorativa amarilla -->
    <rect x="65" y="305" width="270" height="9" fill="#FFC857"/>
    <rect x="65" y="305" width="270" height="3" fill="#FFD980"/>
  </g>

  <!-- Manos (guantes blancos) -->
  <g>
    <circle cx="55" cy="275" r="20" fill="#FFF" stroke="#2A0F26" stroke-width="2.5"/>
    <circle cx="345" cy="275" r="20" fill="#FFF" stroke="#2A0F26" stroke-width="2.5"/>
  </g>

  <!-- Ruedas -->
  <g>
    <circle cx="130" cy="345" r="27" fill="#1A0A18" stroke="#2A0F26" stroke-width="2"/>
    <circle cx="130" cy="345" r="13" fill="#777"/>
    <circle cx="130" cy="345" r="5" fill="#1A0A18"/>
    <circle cx="270" cy="345" r="27" fill="#1A0A18" stroke="#2A0F26" stroke-width="2"/>
    <circle cx="270" cy="345" r="13" fill="#777"/>
    <circle cx="270" cy="345" r="5" fill="#1A0A18"/>
  </g>

  <!-- Antena con luz parpadeante -->
  <g>
    <rect x="195" y="78" width="10" height="20" fill="#4A1D3D"/>
    <circle cx="200" cy="72" r="11" fill="#FFC857" stroke="#A67400" stroke-width="1.5">
      <animate attributeName="opacity" values="1;0.55;1" dur="2.2s" repeatCount="indefinite"/>
    </circle>
  </g>
</svg>
